mtllib ./plants_leaves01.mtl
g Row Root A3
v -0.009982518 -0.05134449 0.03750965
v -0.2298079 0.3498354 -0.4363959
v 0.08160511 0.3415332 -0.0802032
v -0.7306473 0.2214209 -0.9092003
v -0.1222184 0.3055072 -0.2874909
v -0.1722948 0.2784362 -0.6439545
v -0.7306473 0.2214209 -0.9092003
v -0.1722948 0.2784362 -0.6439545
v -0.5273827 0.1756123 -1.068215
v -0.7306473 0.2214209 -0.9092003
v -0.8665443 0.1402988 -0.786595
v -0.5341224 0.2198292 -0.3654609
v -0.7306473 0.2214209 -0.9092003
v -0.5341224 0.2198292 -0.3654609
v -0.1222184 0.3055072 -0.2874909
v -0.03017057 -0.05290218 -0.001522537
v 0.4635693 0.3251923 0.05096954
v 0.02707123 0.3380567 -0.05065009
v 1.082056 0.1637679 0.23012
v 0.2911954 0.2887971 0.01897197
v 0.6117167 0.2882673 -0.1003916
v 1.082056 0.1637679 0.23012
v 0.6117167 0.2882673 -0.1003916
v 1.124727 0.1711955 -0.01441951
v 1.082056 0.1637679 0.23012
v 1.040038 0.05369642 0.3787842
v 0.5397553 0.1455555 0.3054383
v 1.082056 0.1637679 0.23012
v 0.5397553 0.1455555 0.3054383
v 0.2911954 0.2887971 0.01897197
v 0.03524257 -0.05760742 0.005378468
v -0.4684196 0.4140123 0.1335162
v -0.005834853 0.3827305 -0.06456224
v -1.139212 0.2950695 0.4387034
v -0.2888291 0.3550619 0.06413041
v -0.5005717 0.4528194 0.3699656
v -1.139212 0.2950695 0.4387034
v -0.5005717 0.4528194 0.3699656
v -1.016438 0.3930512 0.6696069
v -1.139212 0.2950695 0.4387034
v -1.193415 0.1209713 0.3280127
v -0.6960575 0.152132 0.035392
v -1.139212 0.2950695 0.4387034
v -0.6960575 0.152132 0.035392
v -0.2888291 0.3550619 0.06413041
v -0.04128358 -0.05599017 0.03072025
v 0.3416348 0.3872988 -0.3901975
v 0.2534941 0.288228 0.1107555
v 0.352033 0.414976 -1.156885
v 0.2755229 0.3141916 -0.2082255
v 0.5208315 0.2685653 -0.5148411
v 0.352033 0.414976 -1.156885
v 0.5208315 0.2685653 -0.5148411
v 0.5958102 0.2665198 -1.126501
v 0.352033 0.414976 -1.156885
v 0.1359733 0.4035557 -1.192312
v 0.04048283 0.3912723 -0.6061961
v 0.352033 0.414976 -1.156885
v 0.04048283 0.3912723 -0.6061961
v 0.2755229 0.3141916 -0.2082255
v 0.03749532 -0.04866017 -0.09381241
v -0.01173238 0.3789375 0.5204409
v -0.1419135 0.3854439 -0.002400412
v 0.2587407 0.2150119 1.252887
v -0.04060696 0.336048 0.3115503
v -0.1727326 0.2801937 0.6967633
v 0.2587407 0.2150119 1.252887
v -0.1727326 0.2801937 0.6967633
v -0.02630944 0.1438836 1.305518
v 0.2587407 0.2150119 1.252887
v 0.4650818 0.1368836 1.195518
v 0.3415062 0.2472981 0.6005405
v 0.2587407 0.2150119 1.252887
v 0.3415062 0.2472981 0.6005405
v -0.04060696 0.336048 0.3115503
v -0.009982518 -0.05134449 0.03750965
v 0.08160511 0.3415332 -0.0802032
v -0.2298079 0.3498354 -0.4363959
v -0.7306473 0.2214209 -0.9092003
v -0.1722948 0.2784362 -0.6439545
v -0.1222184 0.3055072 -0.2874909
v -0.7306473 0.2214209 -0.9092003
v -0.5273827 0.1756123 -1.068215
v -0.1722948 0.2784362 -0.6439545
v -0.7306473 0.2214209 -0.9092003
v -0.5341224 0.2198292 -0.3654609
v -0.8665443 0.1402988 -0.786595
v -0.7306473 0.2214209 -0.9092003
v -0.1222184 0.3055072 -0.2874909
v -0.5341224 0.2198292 -0.3654609
v -0.03017057 -0.05290218 -0.001522537
v 0.02707123 0.3380567 -0.05065009
v 0.4635693 0.3251923 0.05096954
v 1.082056 0.1637679 0.23012
v 0.6117167 0.2882673 -0.1003916
v 0.2911954 0.2887971 0.01897197
v 1.082056 0.1637679 0.23012
v 1.124727 0.1711955 -0.01441951
v 0.6117167 0.2882673 -0.1003916
v 1.082056 0.1637679 0.23012
v 0.5397553 0.1455555 0.3054383
v 1.040038 0.05369642 0.3787842
v 1.082056 0.1637679 0.23012
v 0.2911954 0.2887971 0.01897197
v 0.5397553 0.1455555 0.3054383
v 0.03524257 -0.05760742 0.005378468
v -0.005834853 0.3827305 -0.06456224
v -0.4684196 0.4140123 0.1335162
v -1.139212 0.2950695 0.4387034
v -0.5005717 0.4528194 0.3699656
v -0.2888291 0.3550619 0.06413041
v -1.139212 0.2950695 0.4387034
v -1.016438 0.3930512 0.6696069
v -0.5005717 0.4528194 0.3699656
v -1.139212 0.2950695 0.4387034
v -0.6960575 0.152132 0.035392
v -1.193415 0.1209713 0.3280127
v -1.139212 0.2950695 0.4387034
v -0.2888291 0.3550619 0.06413041
v -0.6960575 0.152132 0.035392
v -0.04128358 -0.05599017 0.03072025
v 0.2534941 0.288228 0.1107555
v 0.3416348 0.3872988 -0.3901975
v 0.352033 0.414976 -1.156885
v 0.5208315 0.2685653 -0.5148411
v 0.2755229 0.3141916 -0.2082255
v 0.352033 0.414976 -1.156885
v 0.5958102 0.2665198 -1.126501
v 0.5208315 0.2685653 -0.5148411
v 0.352033 0.414976 -1.156885
v 0.04048283 0.3912723 -0.6061961
v 0.1359733 0.4035557 -1.192312
v 0.352033 0.414976 -1.156885
v 0.2755229 0.3141916 -0.2082255
v 0.04048283 0.3912723 -0.6061961
v 0.03749532 -0.04866017 -0.09381241
v -0.1419135 0.3854439 -0.002400412
v -0.01173238 0.3789375 0.5204409
v 0.2587407 0.2150119 1.252887
v -0.1727326 0.2801937 0.6967633
v -0.04060696 0.336048 0.3115503
v 0.2587407 0.2150119 1.252887
v -0.02630944 0.1438836 1.305518
v -0.1727326 0.2801937 0.6967633
v 0.2587407 0.2150119 1.252887
v 0.3415062 0.2472981 0.6005405
v 0.4650818 0.1368836 1.195518
v 0.2587407 0.2150119 1.252887
v -0.04060696 0.336048 0.3115503
v 0.3415062 0.2472981 0.6005405

vn -0.7012792 0.3496239 0.6212654
vn -0.7012792 0.3496239 0.6212654
vn -0.7012792 0.3496239 0.6212654
vn 0.07042937 -0.995351 0.06569638
vn 0.07042937 -0.995351 0.06569638
vn 0.07042937 -0.995351 0.06569638
vn -0.02091081 -0.9675049 0.251986
vn -0.02091081 -0.9675049 0.251986
vn -0.02091081 -0.9675049 0.251986
vn 0.4044142 -0.9023884 -0.1488099
vn 0.4044142 -0.9023884 -0.1488099
vn 0.4044142 -0.9023884 -0.1488099
vn 0.2177403 -0.9725943 -0.08154534
vn 0.2177403 -0.9725943 -0.08154534
vn 0.2177403 -0.9725943 -0.08154534
vn 0.2197785 -0.1532435 -0.9634386
vn 0.2197785 -0.1532435 -0.9634386
vn 0.2197785 -0.1532435 -0.9634386
vn 0.08974757 0.9674286 0.2367008
vn 0.08974757 0.9674286 0.2367008
vn 0.08974757 0.9674286 0.2367008
vn 0.2113864 0.9751374 0.06650469
vn 0.2113864 0.9751374 0.06650469
vn 0.2113864 0.9751374 0.06650469
vn 0.05726992 0.7945585 0.6044807
vn 0.05726992 0.7945585 0.6044807
vn 0.05726992 0.7945585 0.6044807
vn 0.0289293 0.9038575 0.4268542
vn 0.0289293 0.9038575 0.4268542
vn 0.0289293 0.9038575 0.4268542
vn 0.3974622 0.1799954 0.8997918
vn 0.3974622 0.1799954 0.8997918
vn 0.3974622 0.1799954 0.8997918
vn -0.2594513 0.8532588 -0.4523654
vn -0.2594513 0.8532588 -0.4523654
vn -0.2594513 0.8532588 -0.4523654
vn -0.2577669 0.9311104 -0.2580499
vn -0.2577669 0.9311104 -0.2580499
vn -0.2577669 0.9311104 -0.2580499
vn -0.4412594 0.5752712 -0.6887331
vn -0.4412594 0.5752712 -0.6887331
vn -0.4412594 0.5752712 -0.6887331
vn -0.3192028 0.7267021 -0.6082874
vn -0.3192028 0.7267021 -0.6082874
vn -0.3192028 0.7267021 -0.6082874
vn -0.758989 0.6510858 -0.004779228
vn -0.758989 0.6510858 -0.004779228
vn -0.758989 0.6510858 -0.004779228
vn -0.3314799 -0.9350016 -0.1260675
vn -0.3314799 -0.9350016 -0.1260675
vn -0.3314799 -0.9350016 -0.1260675
vn -0.5137098 -0.8558558 -0.06010966
vn -0.5137098 -0.8558558 -0.06010966
vn -0.5137098 -0.8558558 -0.06010966
vn 0.05474304 -0.9984283 -0.01200546
vn 0.05474304 -0.9984283 -0.01200546
vn 0.05474304 -0.9984283 -0.01200546
vn -0.1283249 -0.9850422 -0.1149992
vn -0.1283249 -0.9850422 -0.1149992
vn -0.1283249 -0.9850422 -0.1149992
vn 0.8856464 0.4113818 -0.2153958
vn 0.8856464 0.4113818 -0.2153958
vn 0.8856464 0.4113818 -0.2153958
vn 0.02460106 -0.9905154 -0.1351825
vn 0.02460106 -0.9905154 -0.1351825
vn 0.02460106 -0.9905154 -0.1351825
vn 0.1888892 -0.9476044 -0.2576175
vn 0.1888892 -0.9476044 -0.2576175
vn 0.1888892 -0.9476044 -0.2576175
vn -0.3751292 -0.9222714 -0.09323926
vn -0.3751292 -0.9222714 -0.09323926
vn -0.3751292 -0.9222714 -0.09323926
vn -0.1745895 -0.9820957 -0.07075693
vn -0.1745895 -0.9820957 -0.07075693
vn -0.1745895 -0.9820957 -0.07075693
vn 0.7012792 -0.3496239 -0.6212654
vn 0.7012792 -0.3496239 -0.6212654
vn 0.7012792 -0.3496239 -0.6212654
vn -0.07042937 0.995351 -0.06569638
vn -0.07042937 0.995351 -0.06569638
vn -0.07042937 0.995351 -0.06569638
vn 0.02091081 0.9675049 -0.251986
vn 0.02091081 0.9675049 -0.251986
vn 0.02091081 0.9675049 -0.251986
vn -0.4044142 0.9023884 0.1488099
vn -0.4044142 0.9023884 0.1488099
vn -0.4044142 0.9023884 0.1488099
vn -0.2177403 0.9725943 0.08154534
vn -0.2177403 0.9725943 0.08154534
vn -0.2177403 0.9725943 0.08154534
vn -0.2197785 0.1532435 0.9634386
vn -0.2197785 0.1532435 0.9634386
vn -0.2197785 0.1532435 0.9634386
vn -0.08974757 -0.9674286 -0.2367008
vn -0.08974757 -0.9674286 -0.2367008
vn -0.08974757 -0.9674286 -0.2367008
vn -0.2113864 -0.9751374 -0.06650469
vn -0.2113864 -0.9751374 -0.06650469
vn -0.2113864 -0.9751374 -0.06650469
vn -0.05726992 -0.7945585 -0.6044807
vn -0.05726992 -0.7945585 -0.6044807
vn -0.05726992 -0.7945585 -0.6044807
vn -0.0289293 -0.9038575 -0.4268542
vn -0.0289293 -0.9038575 -0.4268542
vn -0.0289293 -0.9038575 -0.4268542
vn -0.3974622 -0.1799954 -0.8997918
vn -0.3974622 -0.1799954 -0.8997918
vn -0.3974622 -0.1799954 -0.8997918
vn 0.2594513 -0.8532588 0.4523654
vn 0.2594513 -0.8532588 0.4523654
vn 0.2594513 -0.8532588 0.4523654
vn 0.2577669 -0.9311104 0.2580499
vn 0.2577669 -0.9311104 0.2580499
vn 0.2577669 -0.9311104 0.2580499
vn 0.4412594 -0.5752712 0.6887331
vn 0.4412594 -0.5752712 0.6887331
vn 0.4412594 -0.5752712 0.6887331
vn 0.3192028 -0.7267021 0.6082874
vn 0.3192028 -0.7267021 0.6082874
vn 0.3192028 -0.7267021 0.6082874
vn 0.758989 -0.6510858 0.004779228
vn 0.758989 -0.6510858 0.004779228
vn 0.758989 -0.6510858 0.004779228
vn 0.3314799 0.9350016 0.1260675
vn 0.3314799 0.9350016 0.1260675
vn 0.3314799 0.9350016 0.1260675
vn 0.5137098 0.8558558 0.06010966
vn 0.5137098 0.8558558 0.06010966
vn 0.5137098 0.8558558 0.06010966
vn -0.05474304 0.9984283 0.01200546
vn -0.05474304 0.9984283 0.01200546
vn -0.05474304 0.9984283 0.01200546
vn 0.1283249 0.9850422 0.1149992
vn 0.1283249 0.9850422 0.1149992
vn 0.1283249 0.9850422 0.1149992
vn -0.8856464 -0.4113818 0.2153958
vn -0.8856464 -0.4113818 0.2153958
vn -0.8856464 -0.4113818 0.2153958
vn -0.02460106 0.9905154 0.1351825
vn -0.02460106 0.9905154 0.1351825
vn -0.02460106 0.9905154 0.1351825
vn -0.1888892 0.9476044 0.2576175
vn -0.1888892 0.9476044 0.2576175
vn -0.1888892 0.9476044 0.2576175
vn 0.3751292 0.9222714 0.09323926
vn 0.3751292 0.9222714 0.09323926
vn 0.3751292 0.9222714 0.09323926
vn 0.1745895 0.9820957 0.07075693
vn 0.1745895 0.9820957 0.07075693
vn 0.1745895 0.9820957 0.07075693

vt 0.6469727 0.8857422
vt 0.5976563 0.9204102
vt 0.640625 0.9238281
vt 0.7089844 1
vt 0.6938477 0.8222656
vt 0.6557617 0.8852539
vt 0.7089844 1
vt 0.6557617 0.8852539
vt 0.6557617 1
vt 0.7089844 1
vt 0.75 1
vt 0.75 0.8891602
vt 0.7089844 1
vt 0.75 0.8891602
vt 0.6938477 0.8222656
vt 0.6469727 0.8857422
vt 0.5976563 0.9204102
vt 0.640625 0.9238281
vt 0.7089844 1
vt 0.6938477 0.8222656
vt 0.6557617 0.8852539
vt 0.7089844 1
vt 0.6557617 0.8852539
vt 0.6557617 1
vt 0.7089844 1
vt 0.75 1
vt 0.75 0.8891602
vt 0.7089844 1
vt 0.75 0.8891602
vt 0.6938477 0.8222656
vt 0.6469727 0.8857422
vt 0.5976563 0.9204102
vt 0.640625 0.9238281
vt 0.7089844 1
vt 0.6938477 0.8222656
vt 0.6557617 0.8852539
vt 0.7089844 1
vt 0.6557617 0.8852539
vt 0.6557617 1
vt 0.7089844 1
vt 0.75 1
vt 0.75 0.8891602
vt 0.7089844 1
vt 0.75 0.8891602
vt 0.6938477 0.8222656
vt 0.6469727 0.8857422
vt 0.5976563 0.9204102
vt 0.640625 0.9238281
vt 0.7089844 1
vt 0.6938477 0.8222656
vt 0.6557617 0.8852539
vt 0.7089844 1
vt 0.6557617 0.8852539
vt 0.6557617 1
vt 0.7089844 1
vt 0.75 1
vt 0.75 0.8891602
vt 0.7089844 1
vt 0.75 0.8891602
vt 0.6938477 0.8222656
vt 0.6469727 0.8857422
vt 0.5976563 0.9204102
vt 0.640625 0.9238281
vt 0.7089844 1
vt 0.6938477 0.8222656
vt 0.6557617 0.8852539
vt 0.7089844 1
vt 0.6557617 0.8852539
vt 0.6557617 1
vt 0.7089844 1
vt 0.75 1
vt 0.75 0.8891602
vt 0.7089844 1
vt 0.75 0.8891602
vt 0.6938477 0.8222656
vt 0.6469727 0.8857422
vt 0.640625 0.9238281
vt 0.5976563 0.9204102
vt 0.7089844 1
vt 0.6557617 0.8852539
vt 0.6938477 0.8222656
vt 0.7089844 1
vt 0.6557617 1
vt 0.6557617 0.8852539
vt 0.7089844 1
vt 0.75 0.8891602
vt 0.75 1
vt 0.7089844 1
vt 0.6938477 0.8222656
vt 0.75 0.8891602
vt 0.6469727 0.8857422
vt 0.640625 0.9238281
vt 0.5976563 0.9204102
vt 0.7089844 1
vt 0.6557617 0.8852539
vt 0.6938477 0.8222656
vt 0.7089844 1
vt 0.6557617 1
vt 0.6557617 0.8852539
vt 0.7089844 1
vt 0.75 0.8891602
vt 0.75 1
vt 0.7089844 1
vt 0.6938477 0.8222656
vt 0.75 0.8891602
vt 0.6469727 0.8857422
vt 0.640625 0.9238281
vt 0.5976563 0.9204102
vt 0.7089844 1
vt 0.6557617 0.8852539
vt 0.6938477 0.8222656
vt 0.7089844 1
vt 0.6557617 1
vt 0.6557617 0.8852539
vt 0.7089844 1
vt 0.75 0.8891602
vt 0.75 1
vt 0.7089844 1
vt 0.6938477 0.8222656
vt 0.75 0.8891602
vt 0.6469727 0.8857422
vt 0.640625 0.9238281
vt 0.5976563 0.9204102
vt 0.7089844 1
vt 0.6557617 0.8852539
vt 0.6938477 0.8222656
vt 0.7089844 1
vt 0.6557617 1
vt 0.6557617 0.8852539
vt 0.7089844 1
vt 0.75 0.8891602
vt 0.75 1
vt 0.7089844 1
vt 0.6938477 0.8222656
vt 0.75 0.8891602
vt 0.6469727 0.8857422
vt 0.640625 0.9238281
vt 0.5976563 0.9204102
vt 0.7089844 1
vt 0.6557617 0.8852539
vt 0.6938477 0.8222656
vt 0.7089844 1
vt 0.6557617 1
vt 0.6557617 0.8852539
vt 0.7089844 1
vt 0.75 0.8891602
vt 0.75 1
vt 0.7089844 1
vt 0.6938477 0.8222656
vt 0.75 0.8891602

usemtl Texture Atlas 1
usemap Texture Atlas 1
f 2/2/2 1/1/1 3/3/3
f 5/5/5 4/4/4 6/6/6
f 8/8/8 7/7/7 9/9/9
f 11/11/11 10/10/10 12/12/12
f 14/14/14 13/13/13 15/15/15
f 17/17/17 16/16/16 18/18/18
f 20/20/20 19/19/19 21/21/21
f 23/23/23 22/22/22 24/24/24
f 26/26/26 25/25/25 27/27/27
f 29/29/29 28/28/28 30/30/30
f 32/32/32 31/31/31 33/33/33
f 35/35/35 34/34/34 36/36/36
f 38/38/38 37/37/37 39/39/39
f 41/41/41 40/40/40 42/42/42
f 44/44/44 43/43/43 45/45/45
f 47/47/47 46/46/46 48/48/48
f 50/50/50 49/49/49 51/51/51
f 53/53/53 52/52/52 54/54/54
f 56/56/56 55/55/55 57/57/57
f 59/59/59 58/58/58 60/60/60
f 62/62/62 61/61/61 63/63/63
f 65/65/65 64/64/64 66/66/66
f 68/68/68 67/67/67 69/69/69
f 71/71/71 70/70/70 72/72/72
f 74/74/74 73/73/73 75/75/75
f 77/77/77 76/76/76 78/78/78
f 80/80/80 79/79/79 81/81/81
f 83/83/83 82/82/82 84/84/84
f 86/86/86 85/85/85 87/87/87
f 89/89/89 88/88/88 90/90/90
f 92/92/92 91/91/91 93/93/93
f 95/95/95 94/94/94 96/96/96
f 98/98/98 97/97/97 99/99/99
f 101/101/101 100/100/100 102/102/102
f 104/104/104 103/103/103 105/105/105
f 107/107/107 106/106/106 108/108/108
f 110/110/110 109/109/109 111/111/111
f 113/113/113 112/112/112 114/114/114
f 116/116/116 115/115/115 117/117/117
f 119/119/119 118/118/118 120/120/120
f 122/122/122 121/121/121 123/123/123
f 125/125/125 124/124/124 126/126/126
f 128/128/128 127/127/127 129/129/129
f 131/131/131 130/130/130 132/132/132
f 134/134/134 133/133/133 135/135/135
f 137/137/137 136/136/136 138/138/138
f 140/140/140 139/139/139 141/141/141
f 143/143/143 142/142/142 144/144/144
f 146/146/146 145/145/145 147/147/147
f 149/149/149 148/148/148 150/150/150
