# Rhino

mtllib small_rock_cobble02.mtl
usemtl diffuse_0
v -1.5894682392711861 -1.4953947884423364 -59.924994673718743
v -1.5894682392711861 -1.4953947884423364 -59.924994673718743
v 13.240788565318036 -5.5317540135209544 -38.288970354588798
v 13.240788565318036 -5.5317540135209544 -38.288970354588798
v -6.5455541734010758 -1.6955276089320175 -39.685324343346238
v -6.5455541734010758 -1.6955276089320175 -39.685324343346238
v -6.5455541734010758 -1.6955276089320175 -39.685324343346238
v 11.366107665539662 -4.5344980938630108 -53.782139433045884
v 21.153849010614902 -1.6533088584155171 -49.534643772550602
v 21.153849010614902 -1.6533088584155171 -49.534643772550602
v 21.153849010614902 -1.6533088584155171 -49.534643772550602
v 21.153849010614902 -1.6533088584155171 -49.534643772550602
v 13.676260404753249 -2.2258766566178818 -57.303335925752734
v 13.676260404753249 -2.2258766566178818 -57.303335925752734
v 19.228150196662448 7.8591603725968007 -55.486871067807797
v 12.336532777878507 2.7314627516201626 -59.751836591171184
v 8.4352019788306407 9.1606960663127364 -58.871467284677621
v 9.4872627521901638 13.501567322397914 -46.467318206272985
v 9.4872627521901638 13.501567322397914 -46.467318206272985
v -2.9260116204738864 5.8273004151284944 -58.079500300988137
v 3.7097114180939292 4.3417119810094764 -65.563149823067661
v 4.8267168064788954 -1.6796054908323694 -63.885899821240884
v 4.8267168064788954 -1.6796054908323694 -63.885899821240884
v -8.6458266319451216 1.7562184052948773 -46.441588635355785
v -8.6458266319451216 1.7562184052948773 -46.441588635355785
v -8.6458266319451216 1.7562184052948773 -46.441588635355785
v -6.6411515269838031 6.6183867529671989 -39.802733999394306
v -6.6411515269838031 6.6183867529671989 -39.802733999394306
v -6.6411515269838031 6.6183867529671989 -39.802733999394306
v -6.6411515269838031 6.6183867529671989 -39.802733999394306
v 8.7553061481479126 8.0032553802624786 -18.221144328680463
v 8.7553061481479126 8.0032553802624786 -18.221144328680463
v 7.616780857693616 4.4480631407598015 -16.823557131435535
v 3.1173017562507579 0.26283553992541964 -22.892998080072932
v 16.616053985975459 -0.38750540887774354 -19.516188519332442
v 10.535509429085367 -2.4789059574544838 -22.57108122449273
v 18.638854797069961 -2.6790544981228837 -27.99130595957287
v 18.638854797069961 -2.6790544981228837 -27.99130595957287
v 24.981207333281411 7.7487622265560994 -26.303688745728763
v 24.981207333281411 7.7487622265560994 -26.303688745728763
v 24.981207333281411 7.7487622265560994 -26.303688745728763
v 24.21734878661054 5.8111660634494413 -46.882555136838256
v 24.21734878661054 5.8111660634494413 -46.882555136838256
v 17.866377792058159 12.722085074334483 -46.978824739339544
v 17.866377792058159 12.722085074334483 -46.978824739339544
v 17.866377792058159 12.722085074334483 -46.978824739339544
v 13.719510159155979 12.969287413556653 -30.94703141613595
v 20.227863370841977 8.6056543755503103 -21.818137964908267
v 20.227863370841977 8.6056543755503103 -21.818137964908267
vt 2.3762800693511963 -0.6501389741897583
vt -0.6501389741897583 0.46990600228309631
vt 2.4229600429534912 -0.68351101875305176
vt 1.6835099458694458 0.48645401000976563
vt 2.4159200191497803 -0.63898700475692749
vt 1.638990044593811 0.49234798550605774
vt 2.4159200191497803 0.49234798550605774
vt 2.3916699886322021 -0.67929297685623169
vt 2.3966898918151855 -0.70131802558898926
vt -0.70131802558898926 0.48131999373435974
vt -1.3966900110244751 0.48131999373435974
vt 1.7013200521469116 0.48131999373435974
vt 2.3822100162506104 -0.68449097871780396
vt -0.68449097871780396 0.47144100069999695
vt -0.69698399305343628 0.49312600493431091
vt -0.68147599697113037 0.47833099961280823
vt -0.67269700765609741 0.49184200167655945
vt -0.67506498098373413 0.51428699493408203
vt -1.3855700492858887 -0.67506498098373413
vt -0.64713197946548462 0.48624500632286072
vt -0.66206401586532593 0.47491100430488586
vt -0.66457700729370117 0.46507900953292847
vt 2.3687798976898193 -0.66457700729370117
vt -0.63426101207733154 0.49144700169563293
vt 2.3988699913024902 0.49144700169563293
vt 2.3988699913024902 -0.63426101207733154
vt -0.63877201080322266 0.50840401649475098
vt -1.406309962272644 -0.63877201080322266
vt 1.6387699842453003 0.50840401649475098
vt 2.4063100814819336 0.50840401649475098
vt -1.4467699527740479 -0.67341798543930054
vt 1.6734199523925781 0.53544598817825317
vt 1.6708600521087646 0.53009998798370361
vt 1.6607300043106079 0.51510500907897949
vt 1.6911100149154663 0.51764798164367676
vt 1.6774200201034546 0.51012897491455078
vt 1.6956599950790405 0.50362497568130493
vt -1.4397900104522705 0.50362497568130493
vt 1.7099299430847168 0.52583199739456177
vt -1.4313199520111084 0.52583199739456177
vt -1.4313199520111084 -0.70993000268936157
vt -1.3934299945831299 0.49884501099586487
vt -0.70821100473403931 0.49884501099586487
vt -1.385450005531311 0.51219302415847778
vt -0.69392001628875732 0.51219302415847778
vt -1.385450005531311 -0.69392001628875732
vt -1.4163899421691895 -0.68458801507949829
vt -1.4390799999237061 -0.6992340087890625
vt 1.6992299556732178 0.53256100416183472
vn -0.54674303531646729 -0.75309574604034424 -0.36594927310943604
vn -0.54674303531646729 -0.75309574604034424 -0.36594927310943604
vn 0.050775095820426941 -0.99821454286575317 0.031457651406526566
vn 0.050775095820426941 -0.99821454286575317 0.031457651406526566
vn -0.65279924869537354 -0.72839117050170898 0.2080853134393692
vn -0.65279924869537354 -0.72839117050170898 0.2080853134393692
vn -0.65279924869537354 -0.72839117050170898 0.2080853134393692
vn 0.12718701362609863 -0.96771103143692017 -0.21762093901634216
vn 0.68584877252578735 -0.67019224166870117 -0.28364387154579163
vn 0.68584877252578735 -0.67019224166870117 -0.28364387154579163
vn 0.68584877252578735 -0.67019224166870117 -0.28364387154579163
vn 0.68584877252578735 -0.67019224166870117 -0.28364387154579163
vn 0.55604130029678345 -0.47307896614074707 -0.6833844780921936
vn 0.55604130029678345 -0.47307896614074707 -0.6833844780921936
vn 0.61357718706130981 0.37595105171203613 -0.69439458847045898
vn 0.53111302852630615 0.073115304112434387 -0.84414047002792358
vn 0.11935903131961823 0.78586852550506592 -0.6067652702331543
vn -0.17595906555652618 0.97453248500823975 -0.1390136331319809
vn -0.17595906555652618 0.97453248500823975 -0.1390136331319809
vn -0.68472999334335327 0.52276265621185303 -0.50780320167541504
vn 0.18054307997226715 0.17614179849624634 -0.9676663875579834
vn -0.15617591142654419 -0.59624463319778442 -0.78746515512466431
vn -0.15617591142654419 -0.59624463319778442 -0.78746515512466431
vn -0.98613059520721436 -0.061578463762998581 -0.15412522852420807
vn -0.98613059520721436 -0.061578463762998581 -0.15412522852420807
vn -0.98613059520721436 -0.061578463762998581 -0.15412522852420807
vn -0.82410502433776855 0.4920356273651123 0.28062760829925537
vn -0.82410502433776855 0.4920356273651123 0.28062760829925537
vn -0.82410502433776855 0.4920356273651123 0.28062760829925537
vn -0.82410502433776855 0.4920356273651123 0.28062760829925537
vn -0.28238192200660706 0.81363463401794434 0.50819200277328491
vn -0.28238192200660706 0.81363463401794434 0.50819200277328491
vn -0.31293880939483643 0.056878473609685898 0.94806861877441406
vn -0.58218806982040405 -0.4759325385093689 0.65920048952102661
vn 0.31529906392097473 -0.55399996042251587 0.77050018310546875
vn -0.1028689444065094 -0.91913098096847534 0.38028436899185181
vn 0.60183900594711304 -0.7795068621635437 0.17366322875022888
vn 0.60183900594711304 -0.7795068621635437 0.17366322875022888
vn 0.89644730091094971 0.32574039697647095 0.30045869946479797
vn 0.89644730091094971 0.32574039697647095 0.30045869946479797
vn 0.89644730091094971 0.32574039697647095 0.30045869946479797
vn 0.98081165552139282 0.058371320366859436 -0.18601414561271667
vn 0.98081165552139282 0.058371320366859436 -0.18601414561271667
vn 0.42864322662353516 0.88904768228530884 -0.1608080118894577
vn 0.42864322662353516 0.88904768228530884 -0.1608080118894577
vn 0.42864322662353516 0.88904768228530884 -0.1608080118894577
vn 0.0922694131731987 0.97998440265655518 0.17639990150928497
vn 0.40789085626602173 0.50970768928527832 0.75751113891601563
vn 0.40789085626602173 0.50970768928527832 0.75751113891601563
f 1/1/1 3/3/3 5/5/5
f 8/8/8 3/3/3 1/1/1
f 8/8/8 9/9/9 3/3/3
f 13/13/13 9/9/9 8/8/8
f 10/10/10 14/14/14 15/15/15
f 16/16/16 15/15/15 14/14/14
f 17/17/17 15/15/15 16/16/16
f 15/15/15 17/17/17 18/18/18
f 17/17/17 20/20/20 18/18/18
f 20/20/20 17/17/17 21/21/21
f 16/16/16 21/21/21 17/17/17
f 21/21/21 16/16/16 14/14/14
f 14/14/14 22/22/22 21/21/21
f 23/23/23 13/13/13 8/8/8
f 1/1/1 23/23/23 8/8/8
f 22/22/22 2/2/2 20/20/20
f 24/24/24 20/20/20 2/2/2
f 27/27/27 20/20/20 24/24/24
f 20/20/20 27/27/27 18/18/18
f 28/28/28 31/31/31 19/19/19
f 29/29/29 33/33/33 32/32/32
f 34/34/34 33/33/33 29/29/29
f 34/34/34 35/35/35 33/33/33
f 35/35/35 34/34/34 36/36/36
f 6/6/6 36/36/36 34/34/34
f 36/36/36 6/6/6 4/4/4
f 37/37/37 36/36/36 4/4/4
f 37/37/37 35/35/35 36/36/36
f 35/35/35 37/37/37 39/39/39
f 42/42/42 40/40/40 38/38/38
f 40/40/40 42/42/42 44/44/44
f 15/15/15 45/45/45 43/43/43
f 18/18/18 45/45/45 15/15/15
f 47/47/47 46/46/46 19/19/19
f 46/46/46 47/47/47 41/41/41
f 48/48/48 41/41/41 47/47/47
f 49/49/49 35/35/35 39/39/39
f 49/49/49 33/33/33 35/35/35
f 49/49/49 32/32/32 33/33/33
f 31/31/31 48/48/48 47/47/47
f 31/31/31 47/47/47 19/19/19
f 43/43/43 10/10/10 15/15/15
f 38/38/38 11/11/11 42/42/42
f 37/37/37 4/4/4 12/12/12
f 34/34/34 29/29/29 6/6/6
f 25/25/25 7/7/7 30/30/30
f 1/1/1 5/5/5 26/26/26
f 20/20/20 21/21/21 22/22/22
